<?xml version="1.0" encoding="utf-8"?>
<!-- Generator: Adobe Illustrator 17.1.0, SVG Export Plug-In . SVG Version: 6.00 Build 0)  -->
<!DOCTYPE svg PUBLIC "-//W3C//DTD SVG 1.1//EN" "http://www.w3.org/Graphics/SVG/1.1/DTD/svg11.dtd">
<svg version="1.1" id="Layer_1" xmlns="http://www.w3.org/2000/svg" xmlns:xlink="http://www.w3.org/1999/xlink" x="0px" y="0px"
	 viewBox="0 0 78 25.9" enable-background="new 0 0 78 25.9" xml:space="preserve">
<path opacity="0.2" fill="#FFFFFF" d="M57.2,7.1l8.9,0c0,0-1.8,2.4-3.8,5h10.3c1.8-2.4,3.5-4.6,3.8-4.9c1.2-1.5,1.4-2.9,1.4-4.1
	l0-1.7c0-0.9-0.5-1.4-1.4-1.4L57.2,0c-0.8,0-1.3,0.4-1.3,1.3v4.4C55.9,6.6,56.4,7.1,57.2,7.1"/>
<path opacity="0.2" fill="#FFFFFF" d="M0.2,24.3C0,24.7,0,25.1,0.1,25.4c0.2,0.3,0.5,0.5,1,0.5c0,0,6.3,0,6.3,0
	c0.8,0,1.5-0.4,1.9-1.1l6.9-11H6.8C3.5,19,0.3,24.2,0.2,24.3"/>
<path opacity="0.2" fill="#FFFFFF" d="M26,13.9h-8.8c0.2,1.2,1.8,10.3,1.9,10.8c0.1,0.8,0.7,1.2,1.4,1.2h6.1c0.6,0,0.8-0.2,1.1-0.5
	c0.2-0.2,0.3-0.6,0.2-1L26,13.9z"/>
<path opacity="0.2" fill="#FFFFFF" d="M53.2,1.3c0-0.9-0.5-1.3-1.3-1.3h-5.4c-0.8,0-1.3,0.4-1.3,1.3v10.1l-5.1-9
	c-1-1.7-2.7-2.3-4.7-2.3l-4,0c-0.8,0-1.3,0.4-1.3,1.3v10.7h6.6l1,1.8h-7.7v10.7c0,0.9,0.5,1.3,1.3,1.3h5.4c0.8,0,1.3-0.4,1.3-1.3
	V14.5l5.1,9.1c1,1.7,2.7,2.3,4.7,2.3l3.9,0c0.8,0,1.3-0.4,1.3-1.3V13.9h-6.6l-1-1.8h7.6V1.3z"/>
<path opacity="0.2" fill="#FFFFFF" d="M23.8,1.3C23.6,0.4,23.1,0,22.3,0h-2.6c-2.7,0-5.1,1.4-6.5,3.6c0,0-2.5,4-5.3,8.5h17.8
	L23.8,1.3z"/>
<path opacity="0.2" fill="#FFFFFF" d="M76.7,18.9l-9.3,0c0,0,1.8-2.4,3.8-5H60.9c-1.9,2.5-3.6,4.7-3.7,4.8c-1.4,1.9-1.5,3.8-1.5,5.2
	c0,0.3,0,0.8,0,0.8c0,0.9,0.5,1.4,1.4,1.4h19.6c0.8,0,1.3-0.4,1.3-1.3v-4.4C78,19.3,77.5,18.9,76.7,18.9"/>
</svg>
