<?xml version="1.0" encoding="utf-8"?>
<!-- Generator: Adobe Illustrator 17.1.0, SVG Export Plug-In . SVG Version: 6.00 Build 0)  -->
<!DOCTYPE svg PUBLIC "-//W3C//DTD SVG 1.1//EN" "http://www.w3.org/Graphics/SVG/1.1/DTD/svg11.dtd">
<svg version="1.1" id="Layer_1" xmlns="http://www.w3.org/2000/svg" xmlns:xlink="http://www.w3.org/1999/xlink" x="0px" y="0px"
	 viewBox="0 0 134.2 16.7" enable-background="new 0 0 134.2 16.7" xml:space="preserve">
<g opacity="0.2">
	<path fill-rule="evenodd" clip-rule="evenodd" fill="#FFFFFF" d="M17.5,0L17,1.8h-2.7L14.8,0H17.5z M16.5,3.8l-2.4,8.9h-2.7
		l2.4-8.9H16.5z"/>
	<path fill-rule="evenodd" clip-rule="evenodd" fill="#FFFFFF" d="M73.3,12.7L76.7,0h6.5H84c1.7,0,2.8,0.2,3.5,0.5
		c0.7,0.4,1.1,1,1.1,1.9c0,0.5-0.1,1.1-0.3,1.7c-0.5,1.8-1.1,3.1-2,3.6c-0.8,0.6-2.4,0.8-4.6,0.8l-0.7,0h-3.6l-1.1,4.1H73.3z
		 M78,6.5h3.4c1.4,0,2.3-0.1,2.7-0.4c0.4-0.3,0.8-0.9,1-1.8c0.2-0.6,0.3-1.1,0.3-1.4c0-0.4-0.2-0.7-0.5-0.8c-0.3-0.1-1-0.2-1.9-0.2
		h-3.8L78,6.5z"/>
	<path fill-rule="evenodd" clip-rule="evenodd" fill="#FFFFFF" d="M90.9,6.4h-2.7c0.3-1.1,0.8-1.8,1.5-2.2c0.7-0.4,2-0.5,4-0.5
		c1.6,0,2.7,0.1,3.4,0.4c0.7,0.3,1,0.8,1,1.5c0,0.3-0.1,0.7-0.2,1.2l-1.6,5.8h-2.7l0.5-1.2c-0.5,0.5-1,0.9-1.5,1.1
		c-0.5,0.2-1.3,0.3-2.4,0.3c-1.3,0-2.2-0.1-2.7-0.4c-0.5-0.3-0.8-0.7-0.8-1.4c0-0.3,0-0.6,0.1-0.9c0.3-1,0.8-1.8,1.5-2.2
		c0.8-0.4,1.9-0.7,3.4-0.7c1.1,0,1.8,0.1,2.3,0.2c0.4,0.1,0.7,0.4,0.8,0.8l0.4-1.5c0.1-0.3,0.1-0.6,0.1-0.8c0-0.4-0.1-0.6-0.4-0.7
		c-0.3-0.1-0.8-0.2-1.5-0.2c-0.9,0-1.5,0.1-1.8,0.2C91.3,5.5,91,5.9,90.9,6.4z M92.2,8.7c-0.9,0-1.6,0.1-2,0.2
		c-0.4,0.2-0.6,0.5-0.7,1c-0.1,0.2-0.1,0.4-0.1,0.6c0,0.3,0.1,0.5,0.5,0.7c0.3,0.1,0.9,0.2,1.7,0.2c0.9,0,1.6-0.1,2-0.3
		c0.4-0.2,0.7-0.5,0.8-1.1c0-0.1,0-0.1,0-0.2c0-0.1,0-0.2,0-0.2c0-0.3-0.2-0.5-0.5-0.7C93.6,8.8,93,8.7,92.2,8.7z"/>
	<path fill-rule="evenodd" clip-rule="evenodd" fill="#FFFFFF" d="M125.2,9.9h2.7l0,0.2l0,0.1c-0.3,1-0.8,1.7-1.6,2.1
		c-0.8,0.4-2.1,0.6-3.9,0.6c-1.7,0-2.9-0.2-3.6-0.5c-0.7-0.3-1-0.9-1-1.8c0-0.5,0.1-1.3,0.4-2.3c0.5-1.8,1.1-3,2-3.7
		c0.9-0.6,2.3-0.9,4.3-0.9c1.6,0,2.8,0.2,3.4,0.5c0.6,0.3,1,0.9,1,1.8c0,0.5-0.1,1.2-0.3,2l-0.2,0.7h-7.5L120.5,9
		c-0.1,0.2-0.1,0.4-0.1,0.6c0,0.2,0,0.3,0,0.5c0,0.4,0.2,0.7,0.5,0.9c0.3,0.2,0.9,0.2,1.7,0.2c1,0,1.6-0.1,1.9-0.2
		C124.7,10.8,125,10.5,125.2,9.9z M121,7.3h4.9L126,7c0.1-0.4,0.1-0.6,0.1-0.8c0-0.4-0.2-0.6-0.5-0.7c-0.3-0.1-0.8-0.2-1.7-0.2
		c-1,0-1.7,0.1-2.1,0.3C121.6,5.9,121.3,6.4,121,7.3z"/>
	<g>
		<path fill-rule="evenodd" clip-rule="evenodd" fill="#FFFFFF" d="M51,3.8h2.7l-0.5,1.2c0.5-0.5,1-0.9,1.6-1.1
			c0.5-0.2,1.1-0.3,1.9-0.3c0.8,0,1.4,0.1,1.8,0.4C58.8,4.3,59,4.7,59,5.3c0,0.4-0.1,0.8-0.2,1.3l-0.2,0.6h-2.5l0.1-0.5
			c0.1-0.3,0.1-0.6,0.1-0.7c0-0.5-0.4-0.7-1.1-0.7c-0.7,0-1.3,0.2-1.6,0.5c-0.4,0.3-0.7,0.9-0.9,1.6l-1.4,5.3h-2.7L51,3.8z"/>
	</g>
	<g>
		<path fill-rule="evenodd" clip-rule="evenodd" fill="#FFFFFF" d="M45.6,9.9h2.7l0,0.2l0,0.1c-0.3,1-0.8,1.7-1.6,2.1
			c-0.8,0.4-2.1,0.6-3.9,0.6c-1.7,0-2.9-0.2-3.6-0.5c-0.7-0.3-1-0.9-1-1.8c0-0.5,0.1-1.3,0.4-2.3c0.5-1.8,1.1-3,2-3.7
			c0.9-0.6,2.3-0.9,4.3-0.9c1.6,0,2.8,0.2,3.4,0.5c0.6,0.3,1,0.9,1,1.8c0,0.5-0.1,1.2-0.3,2l-0.2,0.7h-7.5L41,9
			c-0.1,0.2-0.1,0.4-0.1,0.6c0,0.2,0,0.3,0,0.5c0,0.4,0.2,0.7,0.5,0.9c0.3,0.2,0.9,0.2,1.7,0.2c1,0,1.6-0.1,1.9-0.2
			C45.2,10.8,45.4,10.5,45.6,9.9z M41.4,7.3h4.9L46.4,7c0.1-0.4,0.1-0.6,0.1-0.8c0-0.4-0.1-0.6-0.5-0.7c-0.3-0.1-0.8-0.2-1.7-0.2
			c-1,0-1.7,0.1-2.1,0.3C42,5.9,41.7,6.4,41.4,7.3z"/>
	</g>
	<g>
		<path fill-rule="evenodd" clip-rule="evenodd" fill="#FFFFFF" d="M32.3,0l-1.4,5.3c0.5-0.6,1-1,1.5-1.2c0.6-0.2,1.4-0.3,2.4-0.3
			c1.1,0,1.9,0.1,2.4,0.4C37.7,4.4,38,4.9,38,5.6c0,0.3-0.1,0.7-0.2,1.1l-1.6,6.1h-2.7L35,7.3L35.1,7c0.1-0.2,0.1-0.4,0.1-0.6
			c0-0.6-0.6-0.9-1.7-0.9c-1,0-1.8,0.2-2.2,0.5c-0.5,0.3-0.8,0.9-1.1,1.8l-1.3,5.1h-2.7L29.6,0H32.3z"/>
	</g>
	<g>
		<path fill-rule="evenodd" clip-rule="evenodd" fill="#FFFFFF" d="M26.6,6.3h-2.6l0-0.2c0-0.1,0-0.2,0-0.2c0-0.3-0.1-0.5-0.4-0.5
			c-0.3-0.1-0.8-0.1-1.6-0.1c-1,0-1.6,0.1-1.9,0.2c-0.3,0.1-0.5,0.4-0.6,0.7c-0.1,0.3-0.1,0.6-0.1,0.7c0,0.2,0.2,0.4,0.5,0.5
			c0.3,0.1,1.1,0.1,2.2,0.1c1.5,0,2.6,0.1,3.2,0.3c0.6,0.2,0.9,0.7,0.9,1.3c0,0.1,0,0.3,0,0.4c0,0.2-0.1,0.3-0.1,0.6
			c-0.3,1.1-0.9,1.8-1.7,2.3c-0.9,0.4-2.3,0.6-4.3,0.6c-1.6,0-2.8-0.1-3.5-0.4c-0.7-0.3-1-0.7-1-1.4c0-0.1,0-0.3,0-0.4
			c0-0.2,0-0.3,0.1-0.5l0.1-0.2h2.8l-0.1,0.3c0,0.2-0.1,0.3-0.1,0.4c0,0.3,0.2,0.5,0.5,0.6c0.3,0.1,0.9,0.2,1.6,0.2
			c1,0,1.6-0.1,2-0.2c0.4-0.2,0.6-0.5,0.7-0.9c0-0.2,0.1-0.3,0.1-0.5c0-0.2-0.1-0.4-0.3-0.5c-0.2-0.1-0.5-0.2-1.1-0.2
			c-2.1,0-3.5-0.1-4.2-0.3C17,8.5,16.6,8,16.6,7.4c0-0.3,0-0.6,0.1-0.9c0.3-1.1,0.8-1.8,1.6-2.2c0.8-0.4,2.2-0.6,4.2-0.6
			c1.6,0,2.7,0.1,3.2,0.3c0.6,0.2,0.9,0.6,0.9,1.3C26.7,5.6,26.6,5.9,26.6,6.3z"/>
	</g>
	<g>
		<polygon fill-rule="evenodd" clip-rule="evenodd" fill="#FFFFFF" points="5.9,2 5,5.5 12.1,5.5 11.5,7.5 4.4,7.5 3.1,12.7 0,12.7 
			3.4,0 13.9,0 13.4,2 		"/>
	</g>
	<g>
		<path fill-rule="evenodd" clip-rule="evenodd" fill="#FFFFFF" d="M109.1,3.8l-5.4,9.5c-0.8,1.3-1.5,2.2-2.3,2.7
			c-0.7,0.5-1.8,0.7-3.1,0.7c-0.2,0-0.3,0-0.4,0c-0.1,0-0.2,0-0.3,0c-0.1,0-0.2,0-0.3,0l0.4-1.6l0.5,0c0.6,0,1.2-0.2,1.6-0.5
			c0.4-0.4,0.8-1,1.2-1.8h-1.4l-1.3-8.9h2.9l0.4,3.8l0.2,1.9l0.1,1l0,0.9l0.6-0.9l0.5-1l1-1.9l2.1-3.8H109.1z"/>
	</g>
	<g>
		<polygon fill-rule="evenodd" clip-rule="evenodd" fill="#FFFFFF" points="113.4,0 111.5,7.3 112.2,7.3 116.1,3.8 119.2,3.8 
			114.2,8 117.7,12.7 114.3,12.7 111.8,8.8 111.1,8.8 110.1,12.7 107.4,12.7 110.7,0 		"/>
	</g>
	<g>
		<polygon fill-rule="evenodd" clip-rule="evenodd" fill="#FFFFFF" points="134.2,0 130.8,12.7 128.1,12.7 131.5,0 		"/>
	</g>
	<path fill-rule="evenodd" clip-rule="evenodd" fill="#FFFFFF" d="M64.9,5.8c1.4-0.2,2.7-0.4,3-0.5c1-0.2,1.3-1.2,1.4-1.9
		c0.1-0.3-0.2-0.7-0.5-0.8c-0.3-0.1-0.9-0.2-1.8-0.2c-1.1,0-1.9,0.1-2.3,0.3C64.5,2.8,64.2,3,64,3.5c-0.3,0.8-0.3,1.2,0.1,1.6
		l0.6,0.5L64.9,5.8z M68.5,10.5l-4.7-3.7c-1.1,0.2-1.7,0.4-2,0.6c-0.3,0.3-0.7,0.9-0.9,1.8c-0.1,0.2-0.1,0.4-0.2,0.7
		c-0.1,0.2-0.1,0.5-0.1,0.7c0,0.5,0.2,0.8,0.7,1c0.5,0.1,1.5,0.2,3,0.2c1.4,0,2.3-0.1,2.9-0.2C67.8,11.3,68.2,11,68.5,10.5z
		 M65.8,6.5l3.4,2.7l0.2-0.7l0.2-0.9h1.6l-0.1,0.3L71,8.5c-0.1,0.4-0.2,0.7-0.3,0.9c-0.1,0.2-0.2,0.4-0.3,0.7l2.1,1.7l-1.1,0.9
		l-1.8-1.4c-0.5,0.6-1.1,1-1.9,1.2c-0.7,0.2-1.8,0.3-3.4,0.3c-2.1,0-3.5-0.1-4.2-0.4c-0.8-0.3-1.2-0.8-1.2-1.6c0-0.2,0-0.4,0-0.6
		c0-0.2,0.1-0.5,0.2-0.9c0.3-1.1,0.7-1.9,1.1-2.3c0.4-0.4,1.2-0.7,2.2-0.9L63,6.1c-0.6-0.5-0.9-0.9-0.9-1.3c0-0.2,0-0.4,0.1-0.7
		C62.5,3,63,2.2,63.7,1.8c0.7-0.4,1.9-0.6,3.7-0.6c1.3,0,2.2,0.1,2.8,0.4C70.7,1.9,71,2.3,71,2.9c0,0.3-0.1,0.6-0.2,1
		c-0.3,0.9-0.6,1.9-2.4,2.2C67.6,6.2,66.6,6.3,65.8,6.5z"/>
</g>
</svg>
