<?xml version="1.0" encoding="utf-8"?>
<!-- Generator: Adobe Illustrator 17.1.0, SVG Export Plug-In . SVG Version: 6.00 Build 0)  -->
<!DOCTYPE svg PUBLIC "-//W3C//DTD SVG 1.1//EN" "http://www.w3.org/Graphics/SVG/1.1/DTD/svg11.dtd">
<svg version="1.1" id="Layer_1" xmlns="http://www.w3.org/2000/svg" xmlns:xlink="http://www.w3.org/1999/xlink" x="0px" y="0px"
	 viewBox="0 0 483.5 98.8" enable-background="new 0 0 483.5 98.8" xml:space="preserve">
<g opacity="0.2">
	<g>
		<g>
			<g>
				<g>
					<g>
						<polygon fill="#FFFFFF" points="80.2,7.8 102.6,7.8 102.6,49.5 130.8,49.5 130.8,61.6 80.2,61.6 						"/>
					</g>
				</g>
				<g>
					<path fill="#FFFFFF" d="M364.4,63.8c-17.5,0-32.2-5.2-32.2-19.5V7.8h21.7v34.8c0,6.7,5,9.8,10.5,9.8c5.5,0,10.5-3.1,10.5-9.8
						V7.8h21.7v36.4C396.5,58.6,381.8,63.8,364.4,63.8z"/>
				</g>
				<g>
					<g>
						<path fill="#FFFFFF" d="M442,22.1H465c-1.2-12.4-18.6-16-32.1-16c-13.5,0-31,4.4-31,17.9c0,9.9,9.6,13,16.4,14.4
							c4.8,1,12.8,2.3,16.8,3.2c5.6,1.2,8.4,2.4,8.4,5.6c0,3.5-3.2,5.3-9.9,5.3c-6.3,0-10.1-2-11.1-6.4h-23.4
							c1.4,14.7,20.1,17.9,35,17.9c14.9,0,32.7-3.5,32.7-18.1c0-7.9-5.1-13.1-17.6-15.6c-6.5-1.3-15.6-3-19.1-3.6
							c-4.6-0.8-6.3-2.5-6.3-4.7c0-2.3,2.2-4.8,8.7-4.8C438.1,17,441,18.6,442,22.1z"/>
					</g>
				</g>
				<g>
					<path fill="#FFFFFF" d="M307.8,41.8c16.1,0,20.3-10.3,20.3-16.8c0-6-3.5-17.2-20.2-17.2h-43.4v53.8h21.3V41.8L307.8,41.8z
						 M285.8,30V19.5H300c3.6,0,6.6,1.7,6.6,5.1c0,3-1.7,5.4-6.6,5.4H285.8z"/>
				</g>
				<g>
					<g>
						<path fill="#FFFFFF" d="M157.8,9.1l0.6-1.3h22.5l-23.4,35.7v18.1h-21.3V43.5L112.8,7.8h22.4l0.6,1.3L146,26.9
							c0.7,1.1,0.9,1.1,1.6,0L157.8,9.1z"/>
					</g>
				</g>
				<g>
					<g>
						<path fill="#FFFFFF" d="M225.8,61.6l0.4-1.1l11.4-26.6c0.3-0.7,1-0.5,1,0.1v27.5H257V7.8h-22.2L234.4,9l-13.7,30.9
							c-0.5,1.2-1,1.2-1.5,0L205.6,9l-0.4-1.2H183v53.8h18.4V34c0-0.6,0.7-0.8,1-0.1l11.4,26.6l0.4,1.1H225.8z"/>
					</g>
				</g>
				<g>
					<path fill="#FFFFFF" d="M75.1,34.7c0,18.1-15.7,29-37.5,29C15.7,63.7,0,52.8,0,34.7c0-18.1,15.7-29,37.6-29
						C59.4,5.7,75.1,16.6,75.1,34.7z M52.5,34.7c0-10.9-5.6-17.6-15-17.6c-9.3,0-15,6.7-15,17.6c0,10.9,5.6,17.6,15,17.6
						C46.9,52.3,52.5,45.6,52.5,34.7z"/>
				</g>
			</g>
			<g>
				<path fill="#FFFFFF" d="M474.1,18.9c5.2,0,9.4-4.2,9.4-9.4c0-5.2-4.2-9.4-9.4-9.4c-5.2,0-9.4,4.2-9.4,9.4
					C464.7,14.6,468.9,18.9,474.1,18.9z M466.2,9.4c0-4.4,3.5-7.9,7.9-7.9c4.4,0,7.9,3.5,7.9,7.9c0,4.4-3.5,7.9-7.9,7.9
					C469.8,17.3,466.2,13.8,466.2,9.4z"/>
				<path fill="#FFFFFF" d="M478.9,6.9c0-2-1.3-3.1-3.8-3.1h-5.1v10.8h1.9V10h2.6l2.3,4.6h2.1l-2.5-4.7C478,9.5,478.9,8.5,478.9,6.9
					z M472,5.4h3.1c1.2,0,1.9,0.5,1.9,1.5c0,0.9-0.6,1.5-1.9,1.5H472V5.4z"/>
			</g>
		</g>
		<polygon fill="#FFFFFF" points="0.3,92.7 235.1,98.8 470,92.7 470,90 235.1,83.9 0.3,90 		"/>
	</g>
</g>
</svg>
