<?xml version="1.0" encoding="utf-8"?>
<!-- Generator: Adobe Illustrator 17.1.0, SVG Export Plug-In . SVG Version: 6.00 Build 0)  -->
<!DOCTYPE svg PUBLIC "-//W3C//DTD SVG 1.1//EN" "http://www.w3.org/Graphics/SVG/1.1/DTD/svg11.dtd">
<svg version="1.1" id="Layer_1" xmlns="http://www.w3.org/2000/svg" xmlns:xlink="http://www.w3.org/1999/xlink" x="0px" y="0px"
	 viewBox="0 0 348.7 49.7" enable-background="new 0 0 348.7 49.7" xml:space="preserve">
<g opacity="0.2">
	<g>
		<g>
			<path fill="#FFFFFF" d="M193.6,1.9v44.4c0,0,0,1.9,1.9,1.9h5.3c1.9,0,1.9-1.9,1.9-1.9V1.9c0,0,0-1.9-1.9-1.9h-5.3
				C193.6,0,193.6,1.9,193.6,1.9z"/>
			<path fill="#FFFFFF" d="M217.1,34.5c4.4-2.3,15.1-2.1,16.1-1.9c0.5,0.1,1.2,0.4,1.2,1.1c0,9.3-12.8,10.5-17.6,7.3
				c-1-0.7-1.7-1.9-1.7-2.9C215.1,36.5,215.6,35.2,217.1,34.5z M211.4,47c6,4.2,17.1,3.2,22.2-1.2c0.6-0.5,1.3-0.1,1.5,0.5
				c0.5,1.6,1.2,1.9,2.8,1.9c0.7,0,3.2,0,3.2,0c1.9,0,1.9-1.9,1.9-1.9v-20c0-10.9-10.2-13.7-17.9-13.7c-8.7,0-14.4,3.3-17.2,10
				c-0.3,0.7,0.5,1.5,1.2,1.5h5.9c1.1,0,2-0.8,2.3-1.3c1.5-2.6,4-3.5,8.7-3.5c5.2,0,6.5,1.2,8.2,3.5c1.1,1.5-0.4,3.1-1.2,3.2
				c-12.5,0.6-14.6,1.1-18,1.6c-4.9,0.8-8.6,5.5-8.6,10.5C206.4,41.3,208,44.5,211.4,47z"/>
			<path fill="#FFFFFF" d="M285.3,46.3V26.7c0-8.8-7.7-14.1-13.4-14.1c-5.6,0-10.4,1.5-14,4.4c-0.3,0.3-1.2,0.5-1.2-0.3v-2
				c0,0,0-1.9-1.9-1.9h-4.6c0,0-1.9,0-1.9,1.9v31.5c0,1.9,1.9,1.9,1.9,1.9l4.6,0c1.9,0,1.9-1.9,1.9-1.9V30.9
				c0-4.3,2.9-11.5,12.3-11.5c6.8,0,7.9,4.7,7.9,7.4v19.6c0,1.9,1.9,1.9,1.9,1.9h4.6C283.4,48.2,285.3,48.2,285.3,46.3z"/>
			<path fill="#FFFFFF" d="M146.6,31.1c0-8.1,6.5-18.4,22-18.4c15.5,0,22,10.3,22,18.4c0,8.4-6.5,18.4-21.9,18.4
				C153.2,49.5,146.6,39.7,146.6,31.1z M181.6,31.1c0-5.1-4.3-11.8-13-11.8c-8.7,0-13,6.7-13,11.8c0,5.1,4.1,11.8,13.1,11.8
				C177.4,42.9,181.6,36.2,181.6,31.1z"/>
			<path fill="#FFFFFF" d="M309.4,19.5c6.6,0,11.9,4.5,11.9,11.5c0,7.2-5.3,11.9-11.9,11.9c-6.6,0-11.6-5.2-11.6-12
				C297.8,24.2,303.3,19.5,309.4,19.5z M320.5,45.2c0.6-0.4,1.1-0.1,1.1,0.9c0,0.1,0,2.1,1.9,2.1h4.6c0,0,1.9,0,1.9-1.9V1.9
				c0-1.9-1.9-1.9-1.9-1.9h-4.6c0,0-1.9,0-1.9,1.9v14c0,1-0.6,1.4-1.1,0.9c-12.5-9.5-31.4,0-31.3,14.1
				C289.2,46.7,307.8,55.2,320.5,45.2z"/>
			<path fill="#FFFFFF" d="M109.6,28.5l0,17.8c0,1.9-1.9,1.9-1.9,1.9h-4.3c0,0-1.9,0-1.9-1.9V1.9c0-1.9,1.9-1.9,1.9-1.9h28.1
				c6.3,0,13.6,4.4,13.6,13.3c0,4.3-2.5,8.3-6,10.8c-0.3,0.2-0.5,0.6-0.4,0.7c2.4,1.9,2.4,3.4,3.3,6.6c1.5,5.8,1.7,10.9,4,15.8
				c0.2,0.3-0.2,1-0.8,1h-5.6c-1.8,0-2.8-0.9-3.2-1.9c-2-6.1-0.6-12-4.8-17.8c-1-1.4-3.1-1.9-5.7-1.9h-14.3
				C111.5,26.5,109.6,26.5,109.6,28.5z M128.6,20.1c0,0,7.5,0,7.5-6.9c0-6.9-7.5-6.9-7.5-6.9h-17.1c-1.9,0-1.9,1.9-1.9,1.9v9.9
				c0,1.9,2,1.9,1.9,1.9H128.6z"/>
		</g>
		<rect x="0" y="36.9" fill="#FFFFFF" width="92.2" height="11.3"/>
		<rect x="0" y="0" fill="#FFFFFF" width="92.2" height="32.8"/>
	</g>
	<path fill="#FFFFFF" d="M337.2,6.3c0-3,2.2-5.2,5.1-5.2c2.8,0,5.1,2.2,5.1,5.2c0,3-2.2,5.3-5.1,5.3C339.5,11.5,337.2,9.3,337.2,6.3
		z M342.4,12.6c3.4,0,6.4-2.7,6.4-6.3c0-3.6-2.9-6.3-6.4-6.3c-3.5,0-6.4,2.7-6.4,6.3C336,9.9,338.9,12.6,342.4,12.6z M341,6.8h1.3
		l1.9,3.1h1.2l-2.1-3.2c1.1-0.1,1.9-0.7,1.9-2c0-1.4-0.8-2.1-2.6-2.1h-2.8v7.3h1.1V6.8z M341,5.8V3.6h1.5c0.8,0,1.6,0.2,1.6,1.1
		c0,1.1-0.8,1.2-1.8,1.2H341z"/>
</g>
</svg>
