<?xml version="1.0" encoding="utf-8"?>
<!-- Generator: Adobe Illustrator 17.1.0, SVG Export Plug-In . SVG Version: 6.00 Build 0)  -->
<!DOCTYPE svg PUBLIC "-//W3C//DTD SVG 1.1//EN" "http://www.w3.org/Graphics/SVG/1.1/DTD/svg11.dtd">
<svg version="1.1" id="Layer_1" xmlns="http://www.w3.org/2000/svg" xmlns:xlink="http://www.w3.org/1999/xlink" x="0px" y="0px"
	 viewBox="0 0 283.5 113.4" enable-background="new 0 0 283.5 113.4" xml:space="preserve">
<path opacity="0.2" fill="#FFFFFF" d="M48.2,42.7c4.4,0,8-3.6,8-8c0-4.4-3.6-8-8-8l-9.4,0c-0.6,0-1.1-0.5-1.1-1.1
	c0-0.6,0.5-1.1,1.1-1.1l9.5,0c4.1,0,7.4-3,7.9-6.9H38.8c-4.4,0-8,3.6-8,8c0,4.4,3.6,8,8,8h9.4c0.6,0,1.1,0.5,1.1,1.1
	c0,0.6-0.5,1.1-1.1,1.1l-9.5,0c-4,0-7.4,3-7.9,6.9H48.2z"/>
<polygon opacity="0.2" fill="#FFFFFF" points="72.3,35.8 72.3,33.6 80.5,33.6 80.5,26.7 72.3,26.7 72.3,24.5 88.6,24.5 88.6,17.6 
	65.4,17.6 65.4,42.7 89,42.7 89,35.8 "/>
<polygon opacity="0.2" fill="#FFFFFF" points="121.2,17.6 97,17.6 97,24.5 105.6,24.5 105.6,42.7 112.5,42.7 112.5,24.5 121.2,24.5 
	"/>
<polygon opacity="0.2" fill="#FFFFFF" points="218.6,17.6 194.4,17.6 194.4,24.5 203,24.5 203,42.7 209.9,42.7 209.9,24.5 
	218.6,24.5 "/>
<polygon opacity="0.2" fill="#FFFFFF" points="146.5,42.7 154,42.7 143,17.6 143,17.6 135.4,17.6 135.4,17.6 124.3,42.7 144.1,42.7 
	141,35.8 134.9,35.8 139.2,26.2 "/>
<polygon opacity="0.2" fill="#FFFFFF" points="242,42.7 249.6,42.7 238.5,17.6 238.5,17.6 230.9,17.6 230.9,17.6 219.9,42.7 
	239.6,42.7 236.6,35.8 230.4,35.8 234.7,26.2 "/>
<polygon opacity="0.2" fill="#FFFFFF" points="179.7,17.6 179.7,31.8 168.1,17.6 161.2,17.6 161.2,42.7 168.1,42.7 168.1,28.5 
	179.7,42.7 186.6,42.7 186.6,17.6 "/>
<path opacity="0.2" fill="#FFFFFF" d="M281.2,57.1V111H2V57.1H281.2z M38.8,72.2c-4.3,0-7.7,3.5-7.7,7.7c0,4.2,3.5,7.7,7.7,7.7
	l10.6,0c0.8,0,1.4,0.6,1.4,1.4c0,0.8-0.6,1.4-1.4,1.4l-10.6,0c-3.7,0-6.9,2.7-7.6,6.3h18.2c4.2,0,7.7-3.5,7.7-7.7
	c0-4.2-3.5-7.7-7.7-7.7l-10.6,0c-0.8,0-1.4-0.6-1.4-1.4c0-0.8,0.6-1.4,1.4-1.4h10.6c3.7,0,6.9-2.7,7.6-6.3
	C56.3,72.2,38.8,72.2,38.8,72.2 M231,72.2c-4.3,0-7.7,3.5-7.7,7.7c0,4.2,3.5,7.7,7.7,7.7l10.6,0c0.8,0,1.4,0.6,1.4,1.4
	c0,0.8-0.6,1.4-1.4,1.4l-10.6,0c-3.7,0-6.9,2.7-7.6,6.3h18.2c4.3,0,7.7-3.5,7.7-7.7c0-4.2-3.4-7.7-7.7-7.7l-10.6,0
	c-0.8,0-1.4-0.6-1.4-1.4c0-0.8,0.6-1.4,1.4-1.4h10.6c3.7,0,6.9-2.7,7.6-6.3C248.5,72.2,231,72.2,231,72.2 M185,72.2v6.3h11.2v18.2
	h6.3V78.5h11.2v-6.3H185z M71.4,72.2v24.5h6.3V78.5h13.2c0.8,0,1.4,0.6,1.4,1.4c0,0.8-0.6,1.4-1.4,1.4c0,0-8.8,0-10.5,0v6.3
	c0.5,0,10.5,0,10.5,0c4.2,0,7.7-3.5,7.7-7.7c0-4.3-3.5-7.7-7.7-7.7H71.4z M148,72.2v24.5h6.3V78.5h12.9c0.8,0,1.4,0.6,1.4,1.4
	c0,0.8-0.6,1.4-1.4,1.4c0,0-8.6,0-10.2,0v6.3c0.5,0,6.8,0,6.8,0s3.9,8.8,4,9.1h6.9c-0.3-0.7-4.3-9.8-4.3-9.8l0.2-0.1
	c2.6-1.3,4.2-4,4.2-6.9c0-4.3-3.5-7.7-7.7-7.7H148z M116.2,72.2c-4.2,0-7.7,3.5-7.7,7.7V89c0,4.3,3.5,7.7,7.7,7.7h11.5
	c4.2,0,7.7-3.5,7.7-7.7v-7.7h-6.3V89c0,0.4-0.1,0.7-0.4,1c-0.3,0.3-0.6,0.4-1,0.4h-11.5c-0.4,0-0.7-0.1-1-0.4
	c-0.3-0.3-0.4-0.6-0.4-1v-9.1c0-0.4,0.1-0.7,0.4-1c0.3-0.3,0.6-0.4,1-0.4c0,0,16.5,0,19.1,0c-0.7-3.6-3.8-6.3-7.6-6.3H116.2z"/>
</svg>
