<?xml version="1.0" encoding="utf-8"?>
<!-- Generator: Adobe Illustrator 17.1.0, SVG Export Plug-In . SVG Version: 6.00 Build 0)  -->
<!DOCTYPE svg PUBLIC "-//W3C//DTD SVG 1.1//EN" "http://www.w3.org/Graphics/SVG/1.1/DTD/svg11.dtd">
<svg version="1.1" id="Telstra_Logo" xmlns="http://www.w3.org/2000/svg" xmlns:xlink="http://www.w3.org/1999/xlink" x="0px"
	 y="0px" viewBox="0 0 174.2 199.3" enable-background="new 0 0 174.2 199.3" xml:space="preserve">
<g opacity="0.2">
	<polygon fill="#FFFFFF" points="76.5,60.4 76.5,60.4 61.5,143.4 	"/>
	<path fill="#FFFFFF" d="M121,91.6l-7.2,42.2l0,0.1l0,0.1c-1.8,9-8,14.4-16.6,14.4H61.5h-6l1.1-5.9l15.2-84.1
		c-13.5-5.7-26.8-9.3-37.9-9.3c-11.6,0-21.1,3.1-27.3,10.7C2.2,65.1,0,71.7,0,79.6c0,23.6,18.5,56.3,50.3,83
		c28.3,23.6,59.4,36.8,82.1,36.8c11.3,0,20.4-3.5,26.4-10.4c4.7-5.4,6.6-12.3,6.6-20.1C165.4,147,148.6,117,121,91.6z"/>
</g>
<path opacity="0.2" fill="#FFFFFF" d="M52.5,0c-5.7,0-10.4,3.8-11.6,9.8l-5,27.3h44.9L61.5,143.4h35.7c4.8,0,10.1-2.2,11.7-10.4
	l16.3-95.9h32.3c5.7,0,10.4-3.8,11.6-9.7l5-27.4H52.5z"/>
</svg>
