<?xml version="1.0" encoding="utf-8"?>
<!-- Generator: Adobe Illustrator 17.1.0, SVG Export Plug-In . SVG Version: 6.00 Build 0)  -->
<!DOCTYPE svg PUBLIC "-//W3C//DTD SVG 1.1//EN" "http://www.w3.org/Graphics/SVG/1.1/DTD/svg11.dtd">
<svg version="1.1" id="Artwork" xmlns="http://www.w3.org/2000/svg" xmlns:xlink="http://www.w3.org/1999/xlink" x="0px" y="0px"
	 viewBox="0 0 465.2 465.2" enable-background="new 0 0 465.2 465.2" xml:space="preserve">
<g opacity="0.2">
	<path fill="#FFFFFF" d="M232.6,0C104.1,0,0,104.1,0,232.6C0,361,104.1,465.2,232.6,465.2c128.5,0,232.6-104.1,232.6-232.6
		C465.2,104.1,361,0,232.6,0z M232.6,436.5c-112.4,0-203.9-91.5-203.9-203.9c0-112.4,91.5-203.9,203.9-203.9s203.9,91.5,203.9,203.9
		C436.5,345,345,436.5,232.6,436.5z"/>
	<path fill="#FFFFFF" d="M142.7,141.4l0.5,2.5l0,0l0.3,1.7l0.2,1.1l0,0l3.2,16.7c-2.3,0.2-5,0.6-6.8,2.8c-1.5,1.9-1.9,4.7-1.2,8.4
		c3.5,19.3,18.9,69.5,19,70l1.3,4.4l1.4-4.3c0.4-1.4,0.9-2.8,1.3-4.1l0,0l1.4-4.6c0,0,0-0.1,0-0.1l0.1-0.4v0
		c9.3-29.8,15.9-51.9,18.6-62.6l0.1,0.1l0.4-2.2c0,0,0,0,0,0l0.2-0.9l0,0c0.3-2.1-0.1-3.7-1.2-5c-1.4-1.7-3.9-2.6-7.6-2.6l0,0
		l-1.1,0l-1.9,0l0,0.1c-0.1,0-0.2,0-0.4,0l-6.4-22.2c8.8-0.4,48.7-2.2,84-2.1c38.6,0.1,78.3,3.7,82.7,4.1c28,2.6,49,15,54.9,32.4
		c1.2,3.4,1.8,7.1,1.8,10.9c0,18.8-17.9,29-34.7,37.1l-3.1,1.5l3.2,1.1c2.4,0.8,4.5,1.7,6.6,2.5l0,0c19.9,8,31.4,18,35,30.6l2.8-0.2
		c0.9-8.2,1.4-16.7,1.4-25.2c0-39.3-9.6-74.3-28.6-104.1l0,0l-1.8-2.7l-0.3-0.5l0,0c-30.5-45.6-82.4-73.9-135.5-73.9
		c-53,0-104.8,28.3-135.4,73.9l0,0l-0.3,0.5l-1.8,2.7l0.1,0c-3.3,5.2-6.4,10.6-9.2,16.2l-1.2,2.4l2.6-0.3
		C113.3,143.6,137.1,141.8,142.7,141.4z M395.2,251.6c-5-10.3-15.5-18.7-31.6-25.6c0.5-0.2,0.9-0.5,1.4-0.7c0.1-0.1,0.2-0.1,0.3-0.2
		c0.3-0.2,0.7-0.4,1-0.6c0.2-0.1,0.3-0.2,0.5-0.3c0.3-0.2,0.6-0.3,0.9-0.5c0.2-0.1,0.3-0.2,0.5-0.3c0.3-0.2,0.5-0.3,0.8-0.5
		c0.2-0.1,0.4-0.2,0.5-0.3c0.3-0.2,0.5-0.3,0.8-0.5c0.2-0.1,0.4-0.2,0.6-0.3c0.3-0.2,0.5-0.3,0.8-0.5c0.2-0.1,0.4-0.2,0.6-0.4
		c0.3-0.2,0.5-0.3,0.8-0.5c0.2-0.1,0.4-0.2,0.5-0.4c0.3-0.2,0.5-0.4,0.8-0.5c0.2-0.1,0.3-0.2,0.5-0.4c0.3-0.2,0.6-0.4,0.9-0.6
		c0.1-0.1,0.3-0.2,0.4-0.3c0.4-0.3,0.8-0.6,1.2-0.9c0.1-0.1,0.3-0.2,0.4-0.3c0.3-0.2,0.5-0.4,0.8-0.7c0.2-0.1,0.3-0.3,0.5-0.4
		c0.2-0.2,0.5-0.4,0.7-0.6c0.2-0.1,0.3-0.3,0.5-0.5c0.2-0.2,0.4-0.4,0.6-0.6c0.2-0.2,0.3-0.3,0.5-0.5c0.2-0.2,0.4-0.4,0.6-0.6
		c0.2-0.2,0.3-0.3,0.5-0.5c0.2-0.2,0.4-0.4,0.6-0.6c0.2-0.2,0.3-0.3,0.5-0.5c0.2-0.2,0.4-0.4,0.6-0.6c0.1-0.2,0.3-0.3,0.4-0.5
		c0.2-0.2,0.4-0.4,0.6-0.7c0.1-0.2,0.3-0.3,0.4-0.5c0.2-0.2,0.4-0.5,0.6-0.7c0.1-0.2,0.2-0.3,0.4-0.5c0.2-0.3,0.4-0.6,0.7-1
		c0.1-0.1,0.1-0.2,0.2-0.3c0.3-0.4,0.5-0.8,0.8-1.3c0.1-0.1,0.2-0.3,0.2-0.4c0.2-0.3,0.3-0.6,0.5-0.9c0.1-0.2,0.2-0.3,0.3-0.5
		c0.1-0.3,0.3-0.5,0.4-0.8c0.1-0.2,0.2-0.4,0.3-0.6c0.1-0.3,0.2-0.5,0.4-0.8c0.1-0.2,0.2-0.4,0.2-0.6c0.1-0.3,0.2-0.6,0.3-0.8
		c0.1-0.2,0.1-0.4,0.2-0.6c0.1-0.3,0.2-0.6,0.3-0.9c0.1-0.2,0.1-0.4,0.2-0.6c0.1-0.3,0.2-0.6,0.2-0.9c0-0.2,0.1-0.4,0.1-0.6
		c0.1-0.3,0.1-0.7,0.2-1c0-0.2,0.1-0.4,0.1-0.6c0.1-0.4,0.1-0.8,0.2-1.1c0-0.2,0-0.3,0.1-0.4c0.1-0.5,0.1-1.1,0.1-1.6
		c2.5,13,3.8,26.6,3.8,40.7C396,239,395.8,245.3,395.2,251.6z M98.9,127.9c1.3-0.2,2.7-0.4,4-0.6c1.2-0.2,2.4-0.4,3.6-0.6
		c1.4-0.2,2.9-0.4,4.3-0.6c1.2-0.2,2.5-0.4,3.7-0.5c1.4-0.2,2.8-0.4,4.3-0.6c1.3-0.2,2.5-0.3,3.8-0.5c1.4-0.2,2.8-0.4,4.2-0.5
		c1.3-0.2,2.6-0.3,3.9-0.5c1.4-0.2,2.8-0.3,4.2-0.5c1.3-0.2,2.7-0.3,4-0.5c1.4-0.1,2.7-0.3,4.1-0.4c1.4-0.1,2.8-0.3,4.1-0.4
		c1.4-0.1,2.7-0.3,4.1-0.4c1.4-0.1,2.8-0.3,4.2-0.4c1.4-0.1,2.8-0.2,4.2-0.3c1.4-0.1,2.8-0.2,4.2-0.3c1.4-0.1,2.8-0.2,4.3-0.3
		c1.4-0.1,2.8-0.2,4.2-0.3c1.5-0.1,2.9-0.2,4.4-0.3c1.4-0.1,2.7-0.2,4.1-0.3c1.5-0.1,2.9-0.2,4.4-0.2c1.4-0.1,2.8-0.2,4.2-0.2
		c1.5-0.1,3-0.1,4.4-0.2c1.4-0.1,2.8-0.1,4.1-0.2c1.6-0.1,3.2-0.1,4.8-0.2c1.3,0,2.5-0.1,3.8-0.1c1.8,0,3.5-0.1,5.3-0.1
		c1.1,0,2.2-0.1,3.3-0.1c2.1,0,4.2-0.1,6.2-0.1c0.8,0,1.6,0,2.5,0c2.9,0,5.8,0,8.8,0c2.9,0,5.9,0,8.8,0c1,0,2.1,0,3.1,0
		c1.9,0,3.8,0,5.6,0.1c1.1,0,2.1,0.1,3.2,0.1c1.8,0,3.7,0.1,5.5,0.1c1.1,0,2.1,0.1,3.2,0.1c1.8,0.1,3.7,0.1,5.5,0.2
		c1.1,0,2.1,0.1,3.2,0.1c1.8,0.1,3.6,0.1,5.4,0.2c1.1,0.1,2.2,0.1,3.3,0.2c1.7,0.1,3.5,0.2,5.2,0.3c1.1,0.1,2.2,0.1,3.4,0.2
		c1.7,0.1,3.4,0.2,5.1,0.3c1.1,0.1,2.3,0.2,3.4,0.2c1.7,0.1,3.4,0.2,5,0.4c1.2,0.1,2.3,0.2,3.5,0.3c1.6,0.1,3.3,0.3,4.9,0.4
		c1.2,0.1,2.3,0.2,3.5,0.3c1.6,0.1,3.2,0.3,4.8,0.4c1.2,0.1,2.4,0.2,3.6,0.4c1.6,0.2,3.1,0.3,4.7,0.5c1.2,0.1,2.4,0.3,3.6,0.4
		c1.5,0.2,3.1,0.3,4.6,0.5c1.2,0.1,2.4,0.3,3.6,0.4c1.5,0.2,3,0.4,4.5,0.6c1.2,0.2,2.5,0.3,3.7,0.5c1.5,0.2,2.9,0.4,4.4,0.6
		c1.2,0.2,2.5,0.4,3.7,0.5c1.4,0.2,2.8,0.4,4.3,0.6c1.3,0.2,2.5,0.4,3.8,0.6c1.3,0.2,2.5,0.4,3.8,0.6c7.9,12.1,14.3,25,19.1,38.8
		c-8.8-14.8-28.8-25.1-54.2-27.5c-7.2-0.7-45.1-4-83-4.1c-1.3,0-2.6,0-3.9,0c-38.8,0-81.6,2.2-82,2.2l-1.8,0.1l8,27.9l1.2-0.1
		c0.7-0.1,1.4-0.1,2.1-0.2l1.9,6.3l1.3-0.2c0.4-0.1,0.9-0.1,1.3-0.2c0.1,0,0.2,0,0.3,0c0.4,0,0.7-0.1,1.1,0c0.1,0,0.1,0,0.1,0
		c0.3,0,0.6,0,0.8,0.1c0.1,0,0.1,0,0.2,0c0.3,0,0.5,0.1,0.8,0.2c0,0,0,0,0.1,0c-2.4,9.8-8.5,30.6-17.4,59.2c-1-4.1-2.3-8.8-3.6-13.8
		c-0.9-3.5-1.8-7.1-2.7-10.6c-0.2-0.7-0.4-1.4-0.5-2.1c-0.3-1.2-0.6-2.4-0.9-3.6c-0.3-1-0.5-1.9-0.7-2.9c0,0,0-0.1,0-0.1
		c-2.4-9.1-4.3-16.6-4.9-18.9c0,0,0-0.1,0-0.1c0-0.1-0.1-0.3-0.1-0.4c-0.6-2.3-0.6-3.9,0.1-4.8c1-1.4,4.1-1.6,7.3-1.7l1.7-0.1
		l-5.4-27.8l-1.2,0.1c0,0-1.8,0.1-5.1,0.3l-1-5.3l-1.2,0.1c-0.3,0-25.5,1.7-54.1,5.1C92.5,138.2,95.6,132.9,98.9,127.9z"/>
	<path fill="#FFFFFF" d="M307.4,213.4c5.7,0,11.1-1.7,15-4.8l0,0c0,0,0,0,0,0l0.2-0.1l0,0c5.4-4.3,8.2-11.2,8.2-19.8
		c0-14.9-9.3-23.7-26.2-24.6l-1.5-0.1l0,5.2l0,0l0,2.4l0,0.5l0,0l0.1,41.4L307.4,213.4z M307.4,210.5l-1.3,0l-0.1-38.1
		c0.1,0,0.2,0,0.3,0.1c0.3,0.1,0.7,0.2,1,0.2c0.4,0.1,0.8,0.2,1.1,0.3c0.3,0.1,0.6,0.2,0.9,0.3c0.4,0.1,0.7,0.2,1.1,0.4
		c0.3,0.1,0.6,0.2,0.9,0.3c0.3,0.1,0.7,0.3,1,0.4c0.3,0.1,0.5,0.3,0.8,0.4c0.3,0.2,0.6,0.3,0.9,0.5c0.3,0.1,0.5,0.3,0.7,0.4
		c0.3,0.2,0.6,0.4,0.8,0.6c0.2,0.2,0.5,0.3,0.7,0.5c0.3,0.2,0.5,0.4,0.8,0.6c0.2,0.2,0.4,0.4,0.6,0.5c0.2,0.2,0.5,0.5,0.7,0.7
		c0.2,0.2,0.4,0.4,0.5,0.6c0.2,0.2,0.4,0.5,0.6,0.8c0.2,0.2,0.3,0.4,0.5,0.6c0.2,0.3,0.4,0.5,0.5,0.8c0.1,0.2,0.3,0.4,0.4,0.7
		c0.2,0.3,0.3,0.6,0.5,0.9c0.1,0.2,0.2,0.5,0.3,0.7c0.1,0.3,0.3,0.6,0.4,1c0.1,0.2,0.2,0.5,0.3,0.8c0.1,0.3,0.2,0.7,0.3,1.1
		c0.1,0.3,0.1,0.5,0.2,0.8c0.1,0.4,0.2,0.8,0.2,1.2c0,0.3,0.1,0.5,0.1,0.8c0.1,0.5,0.1,0.9,0.1,1.4c0,0.2,0.1,0.4,0.1,0.7
		c0,0.7,0.1,1.4,0.1,2.2c0,0.7,0,1.3-0.1,1.9c0,0.2,0,0.4,0,0.6c0,0.4-0.1,0.8-0.1,1.2c0,0.2-0.1,0.4-0.1,0.7c0,0.4-0.1,0.7-0.2,1.1
		c0,0.2-0.1,0.5-0.1,0.7c-0.1,0.3-0.1,0.7-0.2,1c-0.1,0.2-0.1,0.5-0.2,0.7c-0.1,0.3-0.2,0.6-0.3,0.9c-0.1,0.2-0.2,0.4-0.2,0.7
		c-0.1,0.3-0.2,0.6-0.3,0.9c-0.1,0.2-0.2,0.4-0.3,0.6c-0.1,0.3-0.2,0.5-0.4,0.8c-0.1,0.2-0.2,0.4-0.3,0.6c-0.1,0.2-0.2,0.4-0.4,0.6
		C317,209.1,312.4,210.5,307.4,210.5z"/>
	<path fill="#FFFFFF" d="M399.1,272c0-5.1-1-9.6-2.8-13.7c0.7,2.7,1.1,5.7,1.1,8.8c0,9.8-2.9,18.1-8.3,25.2l-1.3-0.7
		c-12.5,16.2-38.9,25.8-78.4,28.6c-28.7,2-58.3,2.5-78.1,2.5c-6.5,0-13,0-19.3-0.1l-1.8,0l6.9-22.4l13.3,0c0.1,0,0.1,0,0.2,0l-0.3,1
		l3-1.7c0,0,0,0,0,0l0.5-0.3l0,0c2.7-1.9,4.1-6.4,4.1-13.2V177.2c0-3.3-0.2-5.6-0.7-7.3c-0.8-3.1-3.7-4.2-5.4-4.2
		c-2,0-3.8,0.9-4.9,2.6c-2.1,3.1-3.7,8.2-6.5,17.4l-41.7,135.6c-5.9-0.3-34.7-1.6-56-3.5c-1.7-0.2-3.4-0.3-5.1-0.5
		c-3.3-10.7-34.9-112.7-42.5-136.6l-1.5-4.7l-0.7,2.6c-1.3-4-2.4-5.3-6.9-6.2l-2.2-0.4l-1.2,3.9l8,1.4c0.9,0.2,1.6,0.7,2.4,1.4
		l-0.5,2.1c-4.2,16.3-6.3,33.7-6.3,51.7c0,38.9,10,75,28.9,104.6l0,0l1.8,2.7l0.3,0.5l0,0c15.3,22.8,36.1,41.6,60.2,54.4
		c23.4,12.5,49.4,19,75.1,19c25.8,0,51.8-6.6,75.2-19c24.1-12.8,44.9-31.6,60.2-54.5l0,0l0.3-0.5l1.8-2.7l-0.1,0
		c6.3-10,11.7-20.7,16-32l0,0l0.1-0.3c0.3-0.9,0.7-1.8,1-2.8C395,294.2,399.1,284.2,399.1,272z M366.3,337.8c-1,0.2-1.9,0.3-2.9,0.5
		c-1.6,0.3-3.2,0.5-4.8,0.8c-1,0.2-2.1,0.3-3.1,0.5c-1.6,0.2-3.2,0.5-4.9,0.7c-1.1,0.2-2.1,0.3-3.2,0.4c-1.6,0.2-3.2,0.4-4.8,0.7
		c-1.1,0.1-2.2,0.3-3.3,0.4c-1.6,0.2-3.2,0.4-4.9,0.6c-1.1,0.1-2.2,0.3-3.3,0.4c-1.6,0.2-3.2,0.4-4.9,0.5c-1.1,0.1-2.3,0.2-3.4,0.4
		c-1.6,0.2-3.2,0.3-4.8,0.5c-1.2,0.1-2.4,0.2-3.5,0.3c-1.6,0.1-3.2,0.3-4.8,0.4c-1.2,0.1-2.4,0.2-3.6,0.3c-1.6,0.1-3.2,0.3-4.7,0.4
		c-1.3,0.1-2.5,0.2-3.8,0.3c-1.5,0.1-3.1,0.2-4.6,0.3c-1.3,0.1-2.7,0.2-4,0.2c-1.5,0.1-3,0.2-4.5,0.3c-1.4,0.1-2.8,0.1-4.2,0.2
		c-1.4,0.1-2.9,0.2-4.3,0.2c-1.4,0.1-2.8,0.1-4.2,0.2c-1.4,0.1-2.9,0.1-4.3,0.2c-1.5,0.1-2.9,0.1-4.4,0.1c-1.4,0-2.8,0.1-4.2,0.1
		c-1.6,0-3.2,0.1-4.7,0.1c-1.3,0-2.6,0.1-3.9,0.1c-2,0-3.9,0.1-5.9,0.1c-0.9,0-1.8,0-2.8,0c-2.9,0-5.8,0-8.8,0c-2.9,0-5.8,0-8.7,0
		c-1,0-2,0-3.1,0c-1.9,0-3.8,0-5.6-0.1c-1.2,0-2.4-0.1-3.6-0.1c-1.7,0-3.4-0.1-5.1-0.1c-1.4,0-2.8-0.1-4.2-0.1c-1.5,0-3-0.1-4.4-0.1
		c-1.4-0.1-2.8-0.1-4.3-0.2c-1.4-0.1-2.9-0.1-4.3-0.2c-1.5-0.1-2.9-0.2-4.4-0.2c-1.4-0.1-2.8-0.1-4.2-0.2c-1.5-0.1-3-0.2-4.4-0.3
		c-1.3-0.1-2.7-0.2-4-0.3c-1.5-0.1-2.9-0.2-4.4-0.3c-1.3-0.1-2.7-0.2-4-0.3c-1.5-0.1-2.9-0.2-4.4-0.4c-1.3-0.1-2.6-0.2-3.9-0.3
		c-1.5-0.1-3-0.3-4.5-0.4c-1.3-0.1-2.5-0.2-3.8-0.4c-1.5-0.1-3-0.3-4.5-0.5c-1.2-0.1-2.5-0.2-3.7-0.4c-1.5-0.2-3-0.3-4.5-0.5
		c-1.2-0.1-2.5-0.3-3.7-0.4c-1.5-0.2-3-0.4-4.5-0.6c-1.2-0.2-2.4-0.3-3.7-0.5c-1.5-0.2-3-0.4-4.5-0.6c-1.2-0.2-2.4-0.3-3.6-0.5
		c-1.5-0.2-3-0.4-4.5-0.6c-1.2-0.2-2.4-0.3-3.6-0.5c-1.5-0.2-3-0.5-4.4-0.7c-1.1-0.2-2.2-0.3-3.2-0.5
		c-19.5-29.5-29.9-65.9-29.9-105.2c0-15.9,1.7-31.4,5-46.1c10.1,32.1,40.9,131.6,41.2,132.6l0.3,0.9l0.9,0.1
		c1.6,0.2,3.3,0.3,5.1,0.5l1.5,4.8l0.9,0.1c24.2,2.2,60.8,3.6,61.1,3.7l1.1,0l0,0h0L228,193.5c1.6-5.2,2.9-9.1,4-12.2l0,109.5
		c0,0.7,0,1.3,0,2c0,0.2,0,0.4,0,0.6c0,0.4-0.1,0.8-0.1,1.2c0,0.2-0.1,0.4-0.1,0.6c0,0.3-0.1,0.7-0.1,1c0,0.2-0.1,0.4-0.1,0.6
		c0,0.2-0.1,0.3-0.1,0.5c-0.3,0.1-0.7,0.2-1.1,0.2c0,0-14.4,0-14.4,0l-1,0l-1.5,4.9h0l-6.2,20.3l0,0l0,0.1l0,0l0,0l-2.3,7.6
		l25.8,0.1c6.5,0.1,12.2,0.1,17.6,0.1c20.5,0,39.1-0.7,61.5-2.2c1.5-0.1,3-0.2,4.5-0.3c1.8-0.1,3.5-0.3,5.2-0.4c0.2,0,0.4,0,0.6-0.1
		c1.6-0.2,3.2-0.3,4.8-0.5c0.3,0,0.5-0.1,0.8-0.1c1.5-0.2,3.1-0.4,4.6-0.6c0.3,0,0.5-0.1,0.8-0.1c1.5-0.2,3-0.4,4.4-0.7
		c0.2,0,0.4-0.1,0.6-0.1c1.5-0.2,3-0.5,4.5-0.8c0.1,0,0.1,0,0.2,0c1.5-0.3,2.9-0.6,4.3-0.9c0.1,0,0.3-0.1,0.4-0.1
		c1.4-0.3,2.7-0.6,4-0.9c0.2-0.1,0.4-0.1,0.6-0.2c1.3-0.3,2.5-0.7,3.7-1c0.2-0.1,0.4-0.1,0.6-0.2c1.2-0.3,2.4-0.7,3.6-1.1
		c0.2-0.1,0.4-0.1,0.5-0.2c1.2-0.4,2.4-0.8,3.5-1.2c0.1,0,0.2-0.1,0.3-0.1c1.2-0.4,2.3-0.9,3.4-1.3c0.1,0,0.2-0.1,0.2-0.1
		c1.1-0.4,2.2-0.9,3.2-1.4c0.2-0.1,0.3-0.1,0.5-0.2c1-0.5,2-0.9,2.9-1.4c0.2-0.1,0.3-0.2,0.5-0.3c0.9-0.5,1.9-1,2.7-1.5
		c0.1-0.1,0.3-0.2,0.4-0.3c0.9-0.5,1.8-1.1,2.6-1.6c0.1-0.1,0.2-0.1,0.3-0.2c0.9-0.6,1.7-1.1,2.5-1.7c0,0,0.1,0,0.1-0.1
		C377.4,319.1,372.3,328.8,366.3,337.8z"/>
	<path fill="#FFFFFF" d="M304.7,235.9l-1.4,0l0,7.8l0,0l0,52.7l4.4-0.2c7.6-0.4,13.8-2.5,18.5-6.3l0.2-0.1l0,0
		c6.2-5.2,9.3-13.1,9.3-23.4c0-28-21.4-30.2-25.7-30.3C308.2,236,304.7,235.9,304.7,235.9z M307.5,293.4l-1.4,0l0-49.7
		c0,0,0.1,0,0.1,0c0.1,0,0.2,0,0.3,0c0.1,0,0.2,0,0.3,0c0.1,0,0.2,0,0.3,0c0.1,0,0.2,0,0.3,0c0.1,0,0.2,0,0.3,0c0.1,0,0.2,0,0.4,0.1
		c0.1,0,0.2,0,0.3,0.1c0.1,0,0.3,0,0.4,0.1c0.1,0,0.2,0,0.3,0.1c0.1,0,0.3,0.1,0.4,0.1c0.1,0,0.2,0,0.4,0.1c0.2,0,0.3,0.1,0.5,0.1
		c0.1,0,0.2,0.1,0.4,0.1c0.2,0,0.3,0.1,0.5,0.1c0.1,0,0.2,0.1,0.4,0.1c0.2,0.1,0.4,0.1,0.5,0.2c0.1,0,0.2,0.1,0.4,0.1
		c0.2,0.1,0.4,0.1,0.6,0.2c0.1,0,0.2,0.1,0.3,0.1c0.3,0.1,0.6,0.2,0.8,0.3c0,0,0.1,0,0.1,0c0.3,0.1,0.6,0.3,1,0.4
		c0.1,0,0.2,0.1,0.2,0.1c0.2,0.1,0.5,0.2,0.7,0.4c0.1,0.1,0.2,0.1,0.4,0.2c0.2,0.1,0.4,0.2,0.6,0.4c0.1,0.1,0.3,0.2,0.4,0.3
		c0.2,0.1,0.4,0.2,0.6,0.4c0.1,0.1,0.3,0.2,0.4,0.3c0.2,0.1,0.4,0.3,0.5,0.4c0.1,0.1,0.3,0.2,0.4,0.3c0.2,0.1,0.4,0.3,0.5,0.4
		c0.1,0.1,0.3,0.3,0.4,0.4c0.2,0.2,0.3,0.3,0.5,0.5c0.1,0.1,0.3,0.3,0.4,0.4c0.2,0.2,0.3,0.3,0.5,0.5c0.1,0.1,0.3,0.3,0.4,0.5
		c0.2,0.2,0.3,0.4,0.5,0.6c0.1,0.2,0.3,0.3,0.4,0.5c0.1,0.2,0.3,0.4,0.4,0.6c0.1,0.2,0.2,0.4,0.4,0.5c0.1,0.2,0.3,0.4,0.4,0.7
		c0.1,0.2,0.2,0.4,0.3,0.6c0.1,0.2,0.3,0.5,0.4,0.7c0.1,0.2,0.2,0.4,0.3,0.6c0.1,0.2,0.2,0.5,0.3,0.8c0.1,0.2,0.2,0.4,0.3,0.7
		c0.1,0.3,0.2,0.6,0.3,0.8c0.1,0.2,0.2,0.5,0.3,0.7c0.1,0.3,0.2,0.6,0.3,0.9c0.1,0.3,0.2,0.5,0.2,0.8c0.1,0.3,0.2,0.6,0.2,1
		c0.1,0.3,0.1,0.5,0.2,0.8c0.1,0.3,0.1,0.7,0.2,1.1c0,0.3,0.1,0.5,0.1,0.8c0.1,0.4,0.1,0.8,0.2,1.2c0,0.3,0.1,0.5,0.1,0.8
		c0,0.5,0.1,0.9,0.1,1.4c0,0.2,0,0.5,0.1,0.7c0,0.7,0.1,1.5,0.1,2.3c0,0.8,0,1.7-0.1,2.5c0,0.3,0,0.5-0.1,0.8c0,0.5-0.1,1-0.1,1.5
		c0,0.3-0.1,0.6-0.1,1c-0.1,0.4-0.1,0.9-0.2,1.3c-0.1,0.3-0.1,0.7-0.2,1c-0.1,0.4-0.2,0.8-0.3,1.2c-0.1,0.3-0.2,0.6-0.3,1
		c-0.1,0.4-0.2,0.7-0.3,1.1c-0.1,0.3-0.2,0.6-0.4,0.9c-0.1,0.3-0.2,0.7-0.4,1c-0.1,0.3-0.3,0.6-0.4,0.9c-0.2,0.3-0.3,0.6-0.5,0.9
		c-0.1,0.3-0.3,0.5-0.5,0.8c-0.2,0.3-0.3,0.6-0.5,0.8C319.9,291.3,314.3,293.1,307.5,293.4z"/>
	<path fill="#FFFFFF" d="M78.5,174.9c2.1,7.9,42.9,138,42.9,138c21.2,1.7,46.3,2.7,46.3,2.7l40-130.6c7.5-27.9,16.9-28,22.6-28
		c4.7,0,12.4,3.3,12.4,16.1c0,12.7,0,98.1,0,112.7c0,14.6-7,19-14.9,19.1c-2.5,0-2.5,0-7.2,0l-4,13c28,0.4,60.1,0,92.4-2.3
		c42.5-3,74.4-16.1,74.4-48.4c0-38.7-53.9-42.4-53.9-42.4s45.7-6.3,45.7-39.5c0-21.6-15.9-35.9-44.6-38.5c-12.6-1.2-48.4-4-82.3-4.1
		c-40.5-0.2-77.7,1.9-77.7,1.9l3.8,13.1c3.4,0,14.1-0.1,14,8.2c-0.2,10.1-32.6,109.8-32.6,109.8C145.5,245.2,132.2,201,127,177
		c-3.1-14.5,3.6-17.2,14.1-17.9l-2.4-12.5c0,0-45,3.7-69.3,7.3l-3.8,12.3C72.3,167,76.4,166.9,78.5,174.9z M340.4,266.4
		c0,20.8-12.2,33.6-32.6,34.6c-12.3,0.6-17.2,0.6-17.2,0.6v-70.2c0,0,11.1-0.4,19.5,0C319.7,231.7,340.4,237.8,340.4,266.4z
		 M290.3,158.7c0,0,8.5,0.2,15.2,0.6c13.7,0.8,30.1,7.2,30.1,29.3c0,20.1-13.5,29.5-28.3,29.5c-11.6,0-17,0-17,0V158.7z"/>
</g>
</svg>
