<?xml version="1.0" encoding="utf-8"?>
<!-- Generator: Adobe Illustrator 17.1.0, SVG Export Plug-In . SVG Version: 6.00 Build 0)  -->
<!DOCTYPE svg PUBLIC "-//W3C//DTD SVG 1.1//EN" "http://www.w3.org/Graphics/SVG/1.1/DTD/svg11.dtd">
<svg version="1.1" id="Layer_1" xmlns="http://www.w3.org/2000/svg" xmlns:xlink="http://www.w3.org/1999/xlink" x="0px" y="0px"
	 viewBox="0 0 268 50.6" enable-background="new 0 0 268 50.6" xml:space="preserve">
<g opacity="0.2">
	<path fill="#FFFFFF" d="M35.6,36.7L25.8,6c-1.4-4.7-3.8-6-7.4-6H0c1.4,0.6,2.4,4.3,2.4,4.3l8.9,30.8c1,3.9,4.2,5.9,7.8,5.9h19.5
		C37.2,40.7,35.6,36.7,35.6,36.7z"/>
	<g>
		<path fill="#FFFFFF" d="M65,36.7L74.9,6c1.4-4.7,3.8-6,7.4-6h18.4c-1.4,0.6-2.4,4.3-2.4,4.3l-8.9,30.8c-1,3.9-4.2,5.9-7.8,5.9H62
			C63.4,40.7,65,36.7,65,36.7z"/>
		<rect x="39.5" y="0.2" fill="#FFFFFF" width="21.6" height="40.8"/>
	</g>
</g>
<path opacity="0.2" fill="#FFFFFF" d="M108.2,20.1c1.1-1.1,2.4-1.7,4-1.7c1.5,0,2.7,0.5,3.7,1.6c1,1,1.4,2.7,1.4,5.1h-11.1
	C106.5,22.9,107.2,21.3,108.2,20.1z M125.7,35.2c-3.5,1-6.7,1.6-9.6,1.6c-2.2,0-4-0.3-5.3-0.9c-1.3-0.6-2.3-1.4-3.1-2.4
	c-0.8-1-1.2-2.4-1.4-4.2h19.5c-0.1-5.9-1.3-9.9-3.7-12c-2.4-2.2-5.6-3.2-9.6-3.2c-3.3,0-6,0.6-8.3,1.8c-2.2,1.2-3.9,2.9-5.1,5
	c-1.2,2.1-1.8,4.4-1.8,6.8c0,2.7,0.7,5.2,2.1,7.4c1.4,2.3,3.3,3.9,5.9,5c2.6,1.1,5.5,1.6,8.9,1.6c3.6,0,7.4-0.5,11.4-1.5V35.2z"/>
<path opacity="0.2" fill="#FFFFFF" d="M129.1,40.2v-5.2c4.2,1.5,7.8,2.2,10.8,2.2c1.6,0,2.9-0.3,3.8-0.8c0.9-0.6,1.4-1.3,1.4-2.1
	c0-0.8-0.4-1.4-1.1-1.9c-0.7-0.5-1.8-1-3.2-1.5l-2.9-1c-3-1-5.2-2.1-6.6-3.3c-1.4-1.2-2.1-2.7-2.1-4.7c0-2.3,1.1-4.2,3.2-5.7
	c2.1-1.5,5.4-2.2,9.8-2.2c2.6,0,5.6,0.3,9.2,0.9v4.9c-3.4-0.9-6.3-1.4-8.5-1.4c-1.8,0-3.1,0.3-4,0.8c-0.9,0.5-1.3,1.2-1.3,2
	c0,0.6,0.3,1.2,0.9,1.7c0.6,0.5,1.6,0.9,3,1.4L144,25c4.1,1.3,6.7,2.6,8,3.8c1.2,1.2,1.9,2.7,1.9,4.4c0,2.2-1.1,4.2-3.4,5.9
	c-2.3,1.7-5.6,2.5-10,2.5C136.8,41.6,133,41.1,129.1,40.2z"/>
<path opacity="0.2" fill="#FFFFFF" d="M174.6,40.9c-2,0.5-3.6,0.8-4.8,0.8c-2.8,0-4.9-0.3-6.4-1c-1.5-0.7-2.7-1.6-3.4-2.7
	c-0.8-1.1-1.1-2.8-1.1-5V19h-3.5v-4.5h3.5V10l8.5-0.8v5.3h6.8V19h-6.8v13c0,1.9,0.4,3.2,1.2,3.8c0.8,0.7,2,1,3.5,1
	c0.7,0,1.6-0.1,2.6-0.3V40.9z"/>
<path opacity="0.2" fill="#FFFFFF" d="M187.1,23.7c1-1.2,2.2-2.2,3.4-2.9c1.2-0.7,2.4-1.1,3.7-1.1c1.9,0,3.4,0.7,4.5,2.2
	c1.1,1.4,1.6,3.4,1.6,5.9c0,2.4-0.6,4.6-1.7,6.4c-1.1,1.9-2.8,2.8-5,2.8c-1.1,0-2.1-0.2-3.1-0.6c-1-0.4-2.1-1.2-3.3-2.3V23.7z
	 M187.1,50.6V38.3c1.2,1,2.2,1.7,3,2.1c0.9,0.4,1.8,0.7,2.7,0.9c1,0.2,2,0.3,3.1,0.3c4.2,0,7.5-1.4,9.8-4.2
	c2.3-2.8,3.5-6.2,3.5-10.4c0-3.9-1-7.1-3.1-9.5c-2.1-2.4-5.1-3.6-8.9-3.6c-2.3,0-4.3,0.5-6,1.4c-1.7,0.9-3.1,2.4-4.2,4.3v-5.1h-8.5
	v36.1H187.1z"/>
<path opacity="0.2" fill="#FFFFFF" d="M226.4,36.1c-1,0.4-2,0.6-3,0.6c-1.1,0-2.1-0.3-2.9-1c-0.8-0.6-1.2-1.5-1.2-2.5
	c0-1.2,0.7-2.3,2-3.1c1.4-0.8,3.4-1.2,6.2-1.2h2v5.3C228.4,35.1,227.4,35.7,226.4,36.1z M229.8,38.2c0.6,1.4,1.5,2.3,2.6,2.8
	c1.1,0.4,2.5,0.7,4.1,0.7c1.4,0,3-0.2,4.8-0.7l-0.1-4c-0.5,0.1-0.9,0.1-1.2,0.1c-0.5,0-1.1-0.2-1.6-0.5c-0.5-0.3-0.8-1.2-0.8-2.6
	V22.2c0-2.2-0.6-3.9-1.7-5c-1.1-1.1-2.6-1.9-4.4-2.5c-1.8-0.5-3.9-0.8-6.3-0.8c-3.8,0-7.6,0.6-11.5,1.8v5c3.4-1.6,6.7-2.4,9.9-2.4
	c1.6,0,3,0.3,4.1,0.8c1.1,0.6,1.6,1.7,1.6,3.3v2.4h-2.3c-5.7,0-9.8,0.9-12.3,2.6c-2.5,1.7-3.8,3.9-3.8,6.5c0,2.1,0.8,3.9,2.5,5.4
	c1.7,1.5,3.9,2.2,6.8,2.2c1.1,0,2.1-0.1,3.1-0.3c1-0.2,1.9-0.5,2.8-1c0.9-0.4,2-1.1,3.2-2.1H229.8z"/>
<path opacity="0.2" fill="#FFFFFF" d="M268,40.4c-3.5,0.8-6.7,1.2-9.7,1.2c-5.3,0-9.4-1.3-12-4c-2.7-2.7-4-6-4-9.9
	c0-4.1,1.4-7.4,4.3-10c2.8-2.6,7-3.8,12.5-3.8c2.5,0,5.5,0.4,8.8,1.1v5.2c-3.4-1-6.1-1.4-8.2-1.4c-2.9,0-5,0.9-6.3,2.8
	c-1.3,1.9-2,3.9-2,6.1c0,1.7,0.4,3.3,1.2,4.8c0.8,1.5,1.8,2.6,3.2,3.3s2.9,1,4.7,1c2.5,0,5.1-0.4,7.7-1.3V40.4z"/>
</svg>
