<?xml version="1.0" encoding="utf-8"?>
<!-- Generator: Adobe Illustrator 17.1.0, SVG Export Plug-In . SVG Version: 6.00 Build 0)  -->
<!DOCTYPE svg PUBLIC "-//W3C//DTD SVG 1.1//EN" "http://www.w3.org/Graphics/SVG/1.1/DTD/svg11.dtd">
<svg version="1.1" id="Layer_1" xmlns="http://www.w3.org/2000/svg" xmlns:xlink="http://www.w3.org/1999/xlink" x="0px" y="0px"
	 viewBox="0 147.3 1190.6 547.2" enable-background="new 0 147.3 1190.6 547.2" xml:space="preserve">
<g>
	<g>
		<path fill="#FEF7E8" d="M53.5,615c0,0-9.9,4.3-26.3,7.1c-17,3.1-26.9,2.2-26.9,2.2V424.8l80.1-14.2c43.9-7.7,69.6,11.1,69.6,53.5
			s-25.7,70.5-69.6,78.2L53.8,547v68H53.5z M72.1,503.4C86,500.9,94.6,491,94.6,474c0-17.3-8.3-24.1-22.6-21.6l-18.9,3.4v51
			L72.1,503.4z"/>
		<path fill="#FEF7E8" d="M291,373.5c47.6-8.3,69.6,13.6,69.6,51c0,25.7-10.5,47.3-31.5,60.9l42.7,73.6c0,0-10.8,4.3-29.4,7.7
			c-18.6,3.4-29.1,2.5-29.1,2.5l-36.8-66.8l-12.7,2.2v73.3c0,0-10.5,4.3-26.3,7.1c-17,3.1-26.9,2.2-26.9,2.2V387.7L291,373.5z
			 M263.8,464.7l19.5-3.4c14.8-2.5,22-12.4,22-27.2s-7.1-22-22-19.5l-19.5,3.4V464.7z"/>
		<path fill="#FEF7E8" d="M428.9,351.8c0,0,10.8-4.3,26.3-7.1c16.1-2.8,26.9-2.2,26.9-2.2v197c0,0-11.1,4.6-26.6,7.1
			c-16.7,3.1-26.6,2.2-26.6,2.2L428.9,351.8L428.9,351.8z"/>
		<path fill="#FEF7E8" d="M719,298c10.5-1.9,28.4-4,35.3-3.7v197c0,0-9.3,4-25,6.8c-16.4,2.8-25.7,1.9-25.7,1.9v-55.7
			c0-34.9,4.3-78.9,5.3-86.3l-1.5,0.3c-1.9,7.1-10.2,39.9-18.2,63.7L672.3,470c0,0-7.4,3.4-21.6,6.2c-14.2,2.5-20.7,1.5-20.7,1.5
			l-16.1-40.5c-9-22.6-17-53.5-18.6-58.8l-1.5,0.3c1.2,6.2,5.9,47,5.9,81.9v57.8c0,0-8.3,4-22.9,6.5s-23.5,1.5-23.5,1.5V329.9
			c9.6-3.4,23.8-6.8,33.1-8.3c20.1-3.7,31.9-3.1,31.9-3.1l19.2,48.2c7.4,19.8,12.7,37.7,14.8,50.7l1.5-0.3
			c0.9-9.3,3.4-21.3,7.7-35.6c7.4-24.1,17.3-50.4,26-75.5C689.6,305.1,700.4,301.4,719,298z"/>
		<path fill="#FEF7E8" d="M906.1,265.2c23.2-4,34.3-3.4,34.3-3.4l61.2,186.2c0,0-9.3,4-27.5,7.4c-16.7,2.8-25.7,1.9-25.7,1.9
			L937,422L872,433.5l-11.1,39c0,0-9.6,4.3-26,7.1c-15.8,2.8-25.4,1.9-25.4,1.9l61.5-207.8C871.4,273.6,883.5,269,906.1,265.2z
			 M903.9,311.9c0,0-1.2,16.1-6.8,35.6l-13.9,47.3l42.7-7.4l-13.6-42.7c-5.6-17.6-7.4-33.1-7.4-33.1L903.9,311.9z"/>
		<path fill="#FEF7E8" d="M1057.3,241.1c0,0,10.5-4.3,26.3-7.1c16.1-2.8,26.9-2.2,26.9-2.2v157.7l77-13.6c1.9,6.2,2.8,13.3,2.8,20.4
			c0,7.1-1.2,14.2-2.8,21.3l-130.2,22.9V241.1z"/>
	</g>
	<path fill="#FEF7E8" d="M7.7,694.5c-4.3,0.6-7.7-2.2-7.7-6.2c0-4.3,3.4-8.3,7.7-9l1167.7-213.7c8.3-1.5,15.2,4,15.2,12.7
		c0,8.3-6.8,16.4-15.2,17.9L7.7,694.5z"/>
	<path fill="#FEF7E8" d="M1182.8,147.4c4.3-0.6,7.7,2.2,7.7,6.2c0,4.3-3.4,8.3-7.7,9L15.2,376.6c-8.3,1.5-15.2-4-15.2-12.7
		c0-8.3,6.8-16.4,15.2-17.9L1182.8,147.4z"/>
</g>
</svg>
