<?xml version="1.0" encoding="utf-8"?>
<!-- Generator: Adobe Illustrator 17.1.0, SVG Export Plug-In . SVG Version: 6.00 Build 0)  -->
<!DOCTYPE svg PUBLIC "-//W3C//DTD SVG 1.1//EN" "http://www.w3.org/Graphics/SVG/1.1/DTD/svg11.dtd">
<svg version="1.1" id="Layer_1" xmlns="http://www.w3.org/2000/svg" xmlns:xlink="http://www.w3.org/1999/xlink" x="0px" y="0px"
	 viewBox="0 0 385 176.9" enable-background="new 0 0 385 176.9" xml:space="preserve">
<g>
	<g>
		<path fill="#2C2626" d="M17.3,151.2c0,0-3.2,1.4-8.5,2.3c-5.5,1-8.7,0.7-8.7,0.7V89.7l25.9-4.6c14.2-2.5,22.5,3.6,22.5,17.3
			c0,13.7-8.3,22.8-22.5,25.3l-8.6,1.5V151.2z M23.3,115.1c4.5-0.8,7.3-4,7.3-9.5c0-5.6-2.7-7.8-7.3-7l-6.1,1.1v16.5L23.3,115.1z"/>
		<path fill="#2C2626" d="M94.1,73.1c15.4-2.7,22.5,4.4,22.5,16.5c0,8.3-3.4,15.3-10.2,19.7l13.8,23.8c0,0-3.5,1.4-9.5,2.5
			c-6,1.1-9.4,0.8-9.4,0.8l-11.9-21.6l-4.1,0.7v23.7c0,0-3.4,1.4-8.5,2.3c-5.5,1-8.7,0.7-8.7,0.7V77.7L94.1,73.1z M85.3,102.6
			l6.3-1.1c4.8-0.8,7.1-4,7.1-8.8c0-4.8-2.3-7.1-7.1-6.3l-6.3,1.1V102.6z"/>
		<path fill="#2C2626" d="M138.7,66.1c0,0,3.5-1.4,8.5-2.3c5.2-0.9,8.7-0.7,8.7-0.7v63.7c0,0-3.6,1.5-8.6,2.3
			c-5.4,1-8.6,0.7-8.6,0.7V66.1z"/>
		<path fill="#2C2626" d="M232.5,48.7c3.4-0.6,9.2-1.3,11.4-1.2v63.7c0,0-3,1.3-8.1,2.2c-5.3,0.9-8.3,0.6-8.3,0.6V96
			c0-11.3,1.4-25.5,1.7-27.9l-0.5,0.1c-0.6,2.3-3.3,12.9-5.9,20.6l-5.4,15.5c0,0-2.4,1.1-7,2c-4.6,0.8-6.7,0.5-6.7,0.5l-5.2-13.1
			c-2.9-7.3-5.5-17.3-6-19l-0.5,0.1c0.4,2,1.9,15.2,1.9,26.5V120c0,0-2.7,1.3-7.4,2.1c-4.7,0.8-7.6,0.5-7.6,0.5V59
			c3.1-1.1,7.7-2.2,10.7-2.7c6.5-1.2,10.3-1,10.3-1l6.2,15.6c2.4,6.4,4.1,12.2,4.8,16.4l0.5-0.1c0.3-3,1.1-6.9,2.5-11.5
			c2.4-7.8,5.6-16.3,8.4-24.4C223,51,226.5,49.8,232.5,48.7z"/>
		<path fill="#2C2626" d="M293,38.1c7.5-1.3,11.1-1.1,11.1-1.1l19.8,60.2c0,0-3,1.3-8.9,2.4c-5.4,0.9-8.3,0.6-8.3,0.6L303,88.8
			l-21,3.7l-3.6,12.6c0,0-3.1,1.4-8.4,2.3c-5.1,0.9-8.2,0.6-8.2,0.6l19.9-67.2C281.8,40.8,285.7,39.3,293,38.1z M292.3,53.2
			c0,0-0.4,5.2-2.2,11.5L285.6,80l13.8-2.4L295,63.8c-1.8-5.7-2.4-10.7-2.4-10.7L292.3,53.2z"/>
		<path fill="#2C2626" d="M341.9,30.3c0,0,3.4-1.4,8.5-2.3c5.2-0.9,8.7-0.7,8.7-0.7v51l24.9-4.4c0.6,2,0.9,4.3,0.9,6.6
			c0,2.3-0.4,4.6-0.9,6.9l-42.1,7.4V30.3z"/>
	</g>
	<path fill="#2C2626" d="M2.5,176.9c-1.4,0.2-2.5-0.7-2.5-2c0-1.4,1.1-2.7,2.5-2.9l377.6-69.1c2.7-0.5,4.9,1.3,4.9,4.1
		c0,2.7-2.2,5.3-4.9,5.8L2.5,176.9z"/>
	<path fill="#2C2626" d="M382.5,0c1.4-0.2,2.5,0.7,2.5,2c0,1.4-1.1,2.7-2.5,2.9L4.9,74.1C2.2,74.6,0,72.8,0,70
		c0-2.7,2.2-5.3,4.9-5.8L382.5,0z"/>
</g>
</svg>
